<svg xmlns="http://www.w3.org/2000/svg" xmlns:xlink="http://www.w3.org/1999/xlink" width="567" zoomAndPan="magnify" viewBox="0 0 425.25 141.750002" height="189" preserveAspectRatio="xMidYMid meet" version="1.0"><defs><g/><clipPath id="b9b8b81e61"><path d="M 242 3.183594 L 282 3.183594 L 282 28 L 242 28 Z M 242 3.183594 " clip-rule="nonzero"/></clipPath><clipPath id="e1cbb76f73"><path d="M 404 119 L 424.5 119 L 424.5 135 L 404 135 Z M 404 119 " clip-rule="nonzero"/></clipPath><clipPath id="78afdd501a"><path d="M 27 123 L 47 123 L 47 137.945312 L 27 137.945312 Z M 27 123 " clip-rule="nonzero"/></clipPath></defs><path fill="#2a2414" d="M 61.898438 53.378906 L 61.566406 47.046875 C 61.566406 47.046875 66.921875 42.5 77.207031 58.003906 C 77.710938 53.445312 78.082031 44.535156 83.023438 43.605469 C 87.96875 42.671875 91.367188 47.242188 92.671875 48.777344 C 92.257812 51.0625 91.046875 55.695312 91.046875 55.695312 C 91.046875 55.695312 86.203125 48.761719 82.210938 50.851562 C 78.222656 52.945312 79 62.242188 78.554688 66.355469 C 76.339844 63.984375 67.28125 54.011719 65.460938 53.730469 C 64.570312 54.125 62.367188 54.808594 61.898438 53.378906 Z M 61.898438 53.378906 " fill-opacity="1" fill-rule="evenodd"/><path fill="#2a2414" d="M 90.578125 28.140625 C 90.578125 28.140625 91.554688 24.171875 93.425781 21.648438 C 95.394531 18.984375 96.976562 18.023438 99.949219 17.644531 C 101.667969 17.425781 113.445312 18.269531 115.238281 19.070312 C 118.382812 20.46875 113.707031 27.410156 105.511719 31.109375 C 97.597656 34.679688 94.621094 35.207031 91.746094 35.832031 C 95.105469 33.789062 105.195312 28.828125 107.882812 26.4375 C 106.789062 26.078125 102.253906 24.734375 96.894531 25.550781 C 94.726562 25.878906 92.742188 26.402344 90.578125 28.140625 Z M 90.578125 28.140625 " fill-opacity="1" fill-rule="evenodd"/><path fill="#2a2414" d="M 136.660156 82.5 L 139.28125 76.164062 L 158.296875 67.203125 L 156.640625 72.984375 C 156.640625 72.984375 143.121094 78.953125 136.660156 82.5 Z M 136.660156 82.5 " fill-opacity="1" fill-rule="evenodd"/><path fill="#2a2414" d="M 121.109375 32.6875 L 123.175781 25.023438 C 123.175781 25.023438 144.132812 13.898438 153.53125 10.390625 C 152.039062 13.714844 149.484375 18.21875 149.484375 18.21875 C 149.484375 18.21875 131.664062 25.5 121.109375 32.6875 Z M 121.109375 32.6875 " fill-opacity="1" fill-rule="evenodd"/><path fill="#2a2414" d="M 150.375 27.085938 L 151.960938 28.617188 C 151.960938 28.617188 152.46875 32.273438 154.046875 32.652344 C 155.007812 32.882812 156.175781 32.335938 155.992188 31.179688 C 155.808594 30.023438 155.117188 29.03125 155.117188 29.03125 L 155.625 26.054688 C 155.625 26.054688 158.0625 30.777344 159.183594 31.40625 C 160.300781 32.03125 161.515625 31.898438 161.3125 30.34375 C 161.105469 28.792969 159.867188 27.863281 159.867188 27.863281 L 160.257812 24.523438 C 160.257812 24.523438 164.203125 28.15625 163.875 30.5625 C 163.550781 32.972656 160.300781 35.601562 157.207031 33.910156 C 155.75 35.089844 154.316406 35.769531 152.835938 34.953125 C 149.675781 33.214844 150.375 27.085938 150.375 27.085938 Z M 150.375 27.085938 " fill-opacity="1" fill-rule="evenodd"/><path fill="#2a2414" d="M 120.3125 49.851562 C 120.3125 49.851562 123.167969 42.292969 124.484375 41.421875 C 125.800781 40.550781 128.488281 39.996094 132.585938 39.984375 C 136.679688 39.972656 164.996094 41.6875 174.539062 38.753906 C 173.929688 41.339844 170.742188 47.023438 170.742188 47.023438 C 170.742188 47.023438 158.9375 48.578125 149.804688 53.726562 C 140.671875 58.871094 135.453125 65.644531 130.859375 66.230469 C 125.113281 66.960938 119.882812 62.636719 115.6875 62.363281 C 111.492188 62.089844 108.117188 66.054688 107.328125 68.167969 C 110.691406 69.507812 117.914062 74.773438 119.097656 77.167969 C 118.339844 80.105469 117.269531 84.824219 116.058594 85.210938 C 114.246094 85.074219 106.566406 81.976562 102.128906 76.628906 C 98.878906 76.203125 91.929688 77.746094 83.019531 80.597656 C 71.878906 84.160156 67.300781 83.207031 62.535156 81.601562 C 57.765625 79.992188 54.710938 77.328125 52.125 74.867188 C 60.324219 77.195312 66.226562 78.882812 76.515625 75.722656 C 85.582031 72.9375 93.199219 67.601562 104.070312 67.945312 C 105.40625 63.871094 109.5625 54.949219 117.019531 53.894531 C 122.875 53.066406 124.984375 57.179688 128.875 57.785156 C 134.386719 58.648438 139.429688 55.722656 145.703125 49.265625 C 141.195312 48.636719 125.351562 48.96875 120.3125 49.851562 Z M 120.3125 49.851562 " fill-opacity="1" fill-rule="evenodd"/><path fill="#2a2414" d="M 168.636719 16.234375 L 166.664062 14.328125 L 168.691406 5.8125 L 176.128906 10.734375 L 174.582031 17.273438 C 174.582031 17.273438 176.925781 24.648438 180.890625 32.832031 C 184.851562 41.011719 187.132812 46.308594 187.117188 51.824219 C 187.101562 57.339844 185.296875 66.445312 183.796875 69.265625 C 182.300781 72.085938 179.722656 74.351562 174.414062 74.6875 C 173.273438 77.253906 170.199219 88.859375 159.542969 95.6875 C 149.34375 102.226562 136.929688 105.683594 131.605469 106.441406 C 137.882812 102.996094 162.167969 90.988281 171.746094 75.140625 C 168.15625 67.101562 164.328125 61.285156 164.328125 61.285156 L 166.46875 52.476562 C 166.46875 52.476562 171.125 60.859375 173.976562 64.023438 C 176.824219 67.1875 182.90625 66.1875 184.203125 61.523438 C 185.503906 56.855469 181.839844 49.429688 179.09375 43.878906 C 176.34375 38.328125 170.582031 27.050781 168.636719 16.234375 Z M 168.636719 16.234375 " fill-opacity="1" fill-rule="evenodd"/><path fill="#2a2414" d="M 239.128906 92.125 L 237.855469 92.085938 C 237.855469 92.085938 237.203125 88.933594 237.808594 86.894531 C 238.140625 85.78125 239.25 84.90625 240.996094 85.472656 C 241.882812 85.757812 246.566406 87.101562 247.199219 87.734375 C 247.378906 89.296875 246.648438 92.050781 245.675781 92.617188 C 244.703125 93.1875 239.992188 95.171875 239.722656 96.660156 C 239.457031 98.152344 241.578125 99.949219 244.0625 102.597656 C 246.550781 105.246094 249.476562 109.074219 247.167969 118.226562 C 247.183594 113.175781 245.523438 109.679688 243.207031 107.0625 C 240.886719 104.441406 235.433594 99.828125 239.128906 92.125 Z M 239.128906 92.125 " fill-opacity="1" fill-rule="evenodd"/><path fill="#2a2414" d="M 266.9375 68.667969 L 267.84375 63.339844 C 267.84375 63.339844 273.285156 62.503906 275.042969 64.597656 C 276.800781 66.691406 276.488281 69.40625 273.449219 72.761719 C 269.617188 76.996094 265.941406 81.125 265.941406 81.125 C 265.941406 81.125 269.304688 83.273438 274.863281 81.328125 C 278.199219 80.15625 279.308594 77.832031 280.0625 76.570312 C 279.480469 78.980469 276.265625 85.226562 273.050781 85.992188 C 271.121094 86.453125 267.410156 86.746094 264.800781 85.828125 C 262.316406 84.953125 263.285156 81.128906 265.660156 78.011719 C 268.035156 74.890625 272.914062 69.398438 272.914062 69.398438 C 272.914062 69.398438 271.046875 68.722656 266.9375 68.667969 Z M 266.9375 68.667969 " fill-opacity="1" fill-rule="evenodd"/><g clip-path="url(#b9b8b81e61)"><path fill="#2a2414" d="M 242.273438 27.015625 L 244.304688 19.503906 L 281.714844 3.160156 L 277.683594 11.390625 C 277.683594 11.390625 249.398438 22.65625 242.273438 27.015625 Z M 242.273438 27.015625 " fill-opacity="1" fill-rule="evenodd"/></g><path fill="#2a2414" d="M 272.566406 22.378906 L 273.625 23.289062 C 273.625 23.289062 273.261719 27.042969 275.375 25.597656 C 276.523438 24.808594 276.089844 21.648438 276.089844 21.648438 C 276.089844 21.648438 277.722656 24.53125 279.25 25.390625 C 280.308594 25.988281 281.101562 25.066406 280.851562 23.957031 C 280.601562 22.847656 279.898438 22.171875 279.898438 22.171875 L 280.160156 19.804688 C 280.160156 19.804688 282.789062 21.359375 282.644531 24.953125 C 282.503906 28.257812 278.425781 28.921875 276.84375 27.699219 C 276.351562 28.792969 273.988281 30.644531 272.78125 28.832031 C 270.828125 25.910156 272.566406 22.378906 272.566406 22.378906 Z M 272.566406 22.378906 " fill-opacity="1" fill-rule="evenodd"/><g clip-path="url(#e1cbb76f73)"><path fill="#2a2414" d="M 404.671875 134.273438 L 406.53125 127.507812 L 424.3125 119.371094 L 421.613281 126.554688 Z M 404.671875 134.273438 " fill-opacity="1" fill-rule="evenodd"/></g><path fill="#2a2414" d="M 388.796875 54.851562 L 386.359375 52.984375 L 387.847656 43.164062 L 395.625 47.949219 L 395.390625 52.722656 C 395.390625 52.722656 398.382812 56.949219 402.140625 61.316406 C 405.894531 65.683594 410.136719 70.066406 411.722656 76.382812 C 413.203125 82.28125 411.132812 87.644531 408.417969 92.902344 C 405.863281 97.855469 402.898438 99.898438 399.113281 100.777344 C 395.671875 101.578125 392.675781 99.457031 391.292969 96.636719 C 389.699219 99.128906 387.0625 103.707031 383.503906 104.699219 C 379.9375 105.6875 376.660156 102.742188 377.109375 98.792969 C 375.125 102.175781 371.285156 108.136719 364.972656 108.640625 C 358.65625 109.144531 358.609375 103.152344 358.5 99.652344 C 353.535156 101.847656 296.066406 117.171875 247.472656 122.320312 C 200.847656 127.261719 123.769531 128.738281 66.183594 112.308594 C 66.046875 115.457031 64.5 116.675781 64.5 116.675781 C 64.5 116.675781 54.578125 114.035156 51.335938 108.910156 C 50.945312 108.296875 51.0625 106.449219 51.0625 106.449219 L 49.132812 103.238281 C 49.132812 103.238281 40.460938 102.9375 30.382812 110.445312 C 20.304688 117.957031 19.402344 122.269531 17.027344 124.210938 C 14.652344 126.15625 7.828125 129.480469 3.957031 121.558594 C 0.0859375 113.640625 4.03125 102.097656 9.429688 92.136719 C 10.433594 91.816406 10.425781 92.160156 10.425781 92.160156 C 10.425781 92.160156 7.433594 98.304688 5.695312 104.660156 C 3.953125 111.015625 6.117188 117.671875 11.203125 118.21875 C 16.292969 118.761719 20.078125 113.691406 24.4375 108.421875 C 28.792969 103.15625 37.25 94.796875 50.914062 95.085938 C 51.085938 94.46875 51.203125 93.238281 52.046875 92.648438 C 52.796875 92.125 54.066406 92.472656 55.097656 93.074219 C 57.113281 94.25 66.929688 102.71875 66.929688 102.71875 C 66.929688 102.71875 94.839844 109.824219 108.890625 111.96875 C 152.808594 118.660156 203.136719 118.699219 236.039062 114.816406 C 289.707031 108.480469 341.847656 97.144531 360.898438 90.792969 C 359.96875 94.414062 360.039062 100.773438 365.992188 99.398438 C 371.953125 98.023438 376.550781 92.40625 380.0625 87.582031 C 377.894531 95.976562 382.253906 96.457031 384.875 95.386719 C 388.15625 94.042969 391.472656 89.050781 392.710938 85.445312 C 393.210938 88.679688 395.988281 93.316406 400.796875 91.695312 C 406.449219 89.789062 408.6875 86.886719 409.847656 84.617188 C 404.832031 75.578125 390.316406 60.09375 388.796875 54.851562 Z M 388.796875 54.851562 " fill-opacity="1" fill-rule="evenodd"/><path fill="#2a2414" d="M 228.191406 42.09375 L 231.085938 34.648438 C 231.085938 34.648438 234.148438 29.863281 244.972656 32.765625 C 258.929688 36.507812 276.414062 37.613281 289.949219 35.542969 C 287.671875 39.632812 285.351562 43.6875 285.351562 43.6875 C 285.351562 43.6875 260.9375 45.753906 246.582031 51.878906 C 253.457031 56.722656 256.519531 58.703125 256.210938 63.480469 C 255.972656 67.234375 252.773438 71.398438 250.816406 72.761719 C 248.105469 74.644531 239.503906 75.324219 232.855469 69.164062 C 231.734375 71.75 228.949219 76.957031 226.359375 79.8125 C 225.390625 83.417969 222.679688 91.648438 216.960938 97.347656 C 211.601562 102.6875 204.804688 108.707031 193.757812 111.792969 C 183.933594 114.535156 173.976562 111.070312 169.992188 101.46875 C 167.113281 94.539062 168.6875 86.492188 170.832031 80.378906 C 170.765625 85.476562 171.023438 97.359375 179.144531 101.296875 C 188.125 105.648438 196.96875 104.035156 206.136719 98.316406 C 216.015625 92.152344 220.984375 87.84375 222.574219 84.855469 C 221.464844 81.929688 215.417969 73.601562 215.417969 73.601562 L 218.554688 64.507812 C 218.554688 64.507812 222.148438 69.882812 223.679688 71.074219 C 226.226562 71.464844 229.574219 70.449219 231.785156 66.203125 C 233.992188 61.960938 239.738281 47.574219 250.417969 43.472656 C 246.46875 41.726562 236.238281 40.941406 228.191406 42.09375 Z M 237.101562 61.558594 C 237.101562 61.558594 239.054688 60.464844 241.53125 60.394531 C 244.011719 60.324219 247.015625 61.277344 249.113281 65.371094 C 245.480469 65.820312 240.136719 65.269531 237.101562 61.558594 Z M 237.101562 61.558594 " fill-opacity="1" fill-rule="evenodd"/><path fill="#2a2414" d="M 402.515625 115.75 L 405.460938 107.261719 L 414.886719 112.371094 L 411.65625 120.28125 Z M 402.515625 115.75 " fill-opacity="1" fill-rule="evenodd"/><path fill="#2a2414" d="M 369.296875 19.589844 L 366.390625 16.671875 L 368.933594 7.851562 L 375.941406 14.082031 L 374.207031 19.4375 C 374.207031 19.4375 378.8125 39.335938 380.8125 47.023438 C 382.808594 54.710938 387.617188 67.5 380.234375 84.558594 C 381.53125 75.578125 382.230469 71.132812 379.152344 59.507812 C 374.457031 41.773438 369.296875 19.589844 369.296875 19.589844 Z M 369.296875 19.589844 " fill-opacity="1" fill-rule="evenodd"/><path fill="#2a2414" d="M 355.8125 6.425781 L 356.152344 8.199219 C 356.152344 8.199219 353.082031 15.667969 354.183594 18.710938 C 355.171875 21.445312 358.390625 20.242188 359.347656 16.003906 C 359.652344 17.554688 359.824219 19.410156 359.824219 19.410156 C 359.824219 19.410156 358.605469 23.667969 356.078125 24.238281 C 353.789062 24.753906 351.824219 21.277344 352.433594 17.117188 C 353.3125 11.117188 355.8125 6.425781 355.8125 6.425781 Z M 355.8125 6.425781 " fill-opacity="1" fill-rule="evenodd"/><path fill="#2a2414" d="M 361.105469 46.347656 L 359.1875 44.398438 L 360.832031 36.074219 L 368.070312 40.652344 L 366.605469 45.617188 C 366.605469 45.617188 371.070312 52.613281 371.9375 56.824219 C 373.242188 63.152344 372.496094 68.046875 370.566406 73.816406 C 369.328125 77.519531 366.5625 80.34375 361.761719 79.472656 C 355.945312 78.417969 353.820312 72.925781 351.917969 69.03125 C 350.578125 73.5 349.742188 79.582031 345.328125 84.921875 C 341.105469 90.027344 331.578125 89.1875 328.332031 82.367188 C 324.660156 74.660156 325.550781 66.117188 325.855469 61.503906 C 323.933594 64.300781 322.351562 69.722656 320.734375 76.554688 C 319.117188 83.386719 319.242188 92.203125 315.261719 93.726562 C 310.84375 95.414062 301.445312 85.667969 304.714844 69.992188 C 305.65625 74.746094 308.832031 85.492188 313.445312 84.703125 C 317.78125 83.960938 318.171875 77.707031 319.148438 71.628906 C 320.125 65.554688 322.480469 55.851562 328.046875 49.707031 C 327.722656 55.457031 326.910156 68.308594 329.953125 73.917969 C 332.996094 79.527344 339.789062 80.65625 343.664062 77.390625 C 347.539062 74.121094 351.582031 67.671875 350.074219 62.90625 C 348.5625 58.140625 343.34375 47.539062 343.34375 47.539062 L 345.183594 38.132812 C 345.183594 38.132812 348.394531 43.09375 353.359375 57.792969 C 357.265625 69.355469 360.238281 71.371094 366.453125 70.074219 C 368.113281 69.726562 370.433594 68.253906 370.253906 66.171875 C 370.023438 63.40625 368.460938 61.332031 367.21875 58.601562 C 363.320312 50.046875 361.105469 46.347656 361.105469 46.347656 Z M 361.105469 46.347656 " fill-opacity="1" fill-rule="evenodd"/><path fill="#2a2414" d="M 338.617188 46.171875 L 339.035156 47.894531 C 339.035156 47.894531 337.539062 53.851562 337.09375 57.175781 C 336.652344 60.496094 337.53125 63.828125 339.484375 62.769531 C 341.644531 61.597656 341.648438 55.472656 341.648438 55.472656 L 342.503906 56.890625 C 342.503906 56.890625 343.003906 65.117188 339.714844 67.386719 C 336.960938 69.292969 335.050781 64.203125 335.472656 60.421875 C 336.609375 50.203125 338.617188 46.171875 338.617188 46.171875 Z M 338.617188 46.171875 " fill-opacity="1" fill-rule="evenodd"/><path fill="#2a2414" d="M 329.226562 10.460938 L 329.726562 5.507812 C 329.726562 5.507812 339.441406 10.792969 334.679688 18.671875 C 334.214844 15.832031 334.414062 14.167969 329.226562 10.460938 Z M 329.226562 10.460938 " fill-opacity="1" fill-rule="evenodd"/><path fill="#2a2414" d="M 334.035156 27.980469 C 334.035156 27.980469 332.839844 28.511719 332.410156 27.902344 C 331.976562 27.292969 331.722656 24.476562 333.0625 23.835938 C 334.398438 23.195312 335.417969 24.417969 335.546875 26.753906 C 335.707031 29.699219 338.210938 31.308594 338.765625 28.589844 C 339.210938 26.429688 338.273438 22.351562 338.273438 22.351562 L 339.476562 23.238281 C 339.476562 23.238281 341.492188 29.375 343.625 29.652344 C 345.472656 29.894531 345.496094 27.890625 343.453125 25.535156 C 343.175781 23.90625 343.453125 21.511719 343.453125 21.511719 C 343.453125 21.511719 347.289062 25.351562 347.640625 29.21875 C 348.105469 34.320312 341.867188 36.457031 339.980469 31.558594 C 339.667969 34.234375 338.707031 35.613281 336.722656 35.34375 C 333.933594 34.960938 333.960938 31.296875 334.035156 27.980469 Z M 334.035156 27.980469 " fill-opacity="1" fill-rule="evenodd"/><path fill="#2a2414" d="M 315.917969 9.617188 L 316.308594 5.789062 C 316.308594 5.789062 321.011719 10.136719 322.011719 15.453125 C 323.015625 20.769531 321.863281 26.777344 322.101562 30.066406 C 324.648438 30.183594 326.523438 30.933594 326.914062 33.378906 C 327.3125 35.824219 323.28125 39.46875 321.183594 36.601562 C 319.65625 34.507812 320.183594 30.789062 320.3125 28.710938 C 320.644531 23.3125 322.875 16.574219 315.917969 9.617188 Z M 323.027344 33.082031 C 323.027344 33.082031 323.507812 33.046875 323.972656 33.140625 C 324.429688 33.230469 324.878906 33.457031 324.8125 33.984375 C 324.71875 34.734375 322.652344 34.8125 323.027344 33.082031 Z M 323.027344 33.082031 " fill-opacity="1" fill-rule="evenodd"/><path fill="#2a2414" d="M 302.542969 15.609375 L 300.34375 13.707031 L 302.203125 4.886719 L 309.351562 9.890625 L 308.453125 15.082031 C 308.453125 15.082031 312.550781 26.261719 314.117188 32 C 315.683594 37.742188 318.019531 49.046875 313.886719 58.679688 C 314.09375 51.601562 313.085938 44.515625 310.226562 36.492188 C 307.371094 28.46875 304.183594 21.847656 302.542969 15.609375 Z M 302.542969 15.609375 " fill-opacity="1" fill-rule="evenodd"/><path fill="#2a2414" d="M 289.402344 4.277344 L 296.707031 8.246094 L 294.84375 14.734375 C 294.84375 14.734375 299.476562 25.53125 301.472656 30.195312 C 303.476562 34.859375 306.945312 41.886719 306.839844 46.652344 C 306.722656 52.15625 305.25 58.5625 303.890625 62.132812 C 302.863281 64.828125 299.917969 66.863281 297.570312 67.496094 C 296.867188 69.882812 295.226562 78.425781 287.671875 88.277344 C 280.113281 98.128906 274.964844 101.480469 269.769531 103.355469 C 264.578125 105.234375 254.730469 108.480469 254.730469 108.480469 C 254.730469 108.480469 266.746094 101.699219 274.929688 94.3125 C 281.773438 88.132812 292.5 76.738281 294.667969 71.105469 C 293.027344 66.605469 290.449219 61.390625 288.378906 58.027344 C 288.765625 55.992188 290.339844 49.257812 290.339844 49.257812 C 290.339844 49.257812 294.492188 56.738281 298.066406 57.9375 C 301.640625 59.136719 304.832031 56.726562 303.757812 52.113281 C 302.730469 47.714844 291.527344 24.339844 288.886719 14.242188 C 287.980469 12.972656 287.738281 12.464844 287.738281 12.464844 Z M 289.402344 4.277344 " fill-opacity="1" fill-rule="evenodd"/><path fill="#2a2414" d="M 219.339844 17.8125 C 219.339844 17.8125 220.585938 11.738281 222.878906 9.96875 C 225.871094 7.667969 230.28125 6.730469 234.734375 7.042969 C 239.191406 7.355469 242.933594 7.9375 243.648438 8.863281 C 244.359375 9.792969 241.820312 14 239.765625 15.925781 C 237.699219 17.863281 231.324219 21.960938 225.390625 22.527344 C 226.75 21.570312 229.085938 19.964844 231.539062 18.394531 C 233.269531 17.289062 234.78125 16.136719 235.5 15.453125 C 231.671875 15.066406 227.78125 14.707031 224.960938 14.941406 C 223.59375 15.054688 220.851562 16.335938 219.339844 17.8125 Z M 219.339844 17.8125 " fill-opacity="1" fill-rule="evenodd"/><path fill="#2a2414" d="M 205.238281 13.5625 L 206.046875 7.066406 C 206.046875 7.066406 225.878906 14.078125 214.09375 46.035156 C 215.621094 35.632812 220.480469 24.371094 205.238281 13.5625 Z M 205.238281 13.5625 " fill-opacity="1" fill-rule="evenodd"/><path fill="#2a2414" d="M 186.335938 7.039062 L 193.511719 12.511719 L 192.167969 20.378906 L 190.261719 21.34375 C 190.261719 21.34375 195.15625 36.300781 197.398438 43.453125 C 199.636719 50.601562 202.753906 62.257812 198.105469 78.996094 C 197.359375 69.351562 196.789062 59.359375 192.59375 46.871094 C 188.945312 36.015625 184.625 22.738281 184.476562 18.511719 C 183.816406 16.488281 183.707031 16.304688 183.707031 16.304688 Z M 186.335938 7.039062 " fill-opacity="1" fill-rule="evenodd"/><path fill="#2a2414" d="M 190.328125 87.570312 L 193.765625 80.34375 L 200.722656 83.511719 L 197.480469 90.804688 Z M 190.328125 87.570312 " fill-opacity="1" fill-rule="evenodd"/><path fill="#2a2414" d="M 122.082031 96.324219 L 126.335938 89.574219 L 133.765625 93.082031 L 129.257812 99.785156 Z M 122.082031 96.324219 " fill-opacity="1" fill-rule="evenodd"/><path fill="#2a2414" d="M 109.175781 100.875 L 113.433594 94.121094 L 120.859375 97.628906 L 116.355469 104.332031 Z M 109.175781 100.875 " fill-opacity="1" fill-rule="evenodd"/><path fill="#2a2414" d="M 20.921875 56.3125 C 20.921875 56.3125 18.847656 57.863281 17.976562 56.257812 C 17.058594 54.570312 16.242188 51.019531 17.5625 50.386719 C 21.070312 48.695312 24.683594 51.640625 29.230469 60.023438 C 30.007812 55.421875 29.152344 48.152344 32.910156 46.386719 C 36.664062 44.621094 38.921875 47.78125 39.238281 48.835938 C 38.65625 50.992188 38.082031 54.167969 38.082031 54.167969 C 38.082031 54.167969 33.203125 49.5625 31.683594 54.464844 C 30.585938 58.007812 30.800781 63.6875 30.144531 63.96875 C 28.988281 64.464844 25.675781 60.296875 20.921875 56.3125 Z M 20.921875 56.3125 " fill-opacity="1" fill-rule="evenodd"/><path fill="#2a2414" d="M 28.019531 68.800781 C 28.019531 68.800781 26.765625 67.183594 26.855469 66.449219 C 26.945312 65.71875 26.941406 63.066406 28.214844 62.914062 C 29.492188 62.765625 35.121094 63.894531 36.519531 64.089844 C 36.96875 65.097656 37.074219 69.683594 35.972656 69.933594 C 34.871094 70.183594 27.417969 71.5 27.601562 73.804688 C 27.785156 76.109375 37.488281 83.695312 34.515625 94.261719 C 33.835938 87.355469 31.171875 84.757812 29.429688 82.167969 C 26.800781 78.261719 22.894531 72.433594 28.019531 68.800781 Z M 28.019531 68.800781 " fill-opacity="1" fill-rule="evenodd"/><g clip-path="url(#78afdd501a)"><path fill="#2a2414" d="M 27.035156 138.265625 L 29.289062 131.117188 L 46.609375 123.308594 L 43.761719 130.285156 Z M 27.035156 138.265625 " fill-opacity="1" fill-rule="evenodd"/></g><g fill="#000000" fill-opacity="1"><g transform="translate(212.364635, 15.046697)"><g><path d="M 0.078125 -0.046875 C 0.078125 -0.0664062 0.0820312 -0.0820312 0.09375 -0.09375 C 0.101562 -0.113281 0.113281 -0.125 0.125 -0.125 C 0.144531 -0.125 0.160156 -0.113281 0.171875 -0.09375 C 0.179688 -0.0820312 0.1875 -0.0664062 0.1875 -0.046875 C 0.1875 -0.0234375 0.179688 -0.0078125 0.171875 0 C 0.160156 0.0078125 0.144531 0.015625 0.125 0.015625 C 0.113281 0.015625 0.101562 0.0078125 0.09375 0 C 0.0820312 -0.0078125 0.078125 -0.0234375 0.078125 -0.046875 Z M 0.078125 -0.046875 "/></g></g></g><g fill="#000000" fill-opacity="1"><g transform="translate(212.364635, 15.046697)"><g><path d="M 0.078125 -0.046875 C 0.078125 -0.0664062 0.0820312 -0.0820312 0.09375 -0.09375 C 0.101562 -0.113281 0.113281 -0.125 0.125 -0.125 C 0.144531 -0.125 0.160156 -0.113281 0.171875 -0.09375 C 0.179688 -0.0820312 0.1875 -0.0664062 0.1875 -0.046875 C 0.1875 -0.0234375 0.179688 -0.0078125 0.171875 0 C 0.160156 0.0078125 0.144531 0.015625 0.125 0.015625 C 0.113281 0.015625 0.101562 0.0078125 0.09375 0 C 0.0820312 -0.0078125 0.078125 -0.0234375 0.078125 -0.046875 Z M 0.078125 -0.046875 "/></g></g></g></svg>